<svg width="95" height="80" viewBox="0 0 95 80" fill="none" xmlns="http://www.w3.org/2000/svg">
<path d="M22.8467 40.9765C22.7978 41.3179 22.2015 42.3809 20.207 43.9022C20.5981 45.5113 22.0255 48.7296 24.6066 48.7296C26.4642 48.3395 30.1794 48.3785 30.1794 51.6553C26.8552 51.8991 19.679 54.9028 17.5672 64.9672C13.021 61.8464 4.66179 52.3867 7.00822 40.0988C7.70656 36.4416 11.3491 27.4598 24.6066 21.9594C20.4514 21.5206 10.3629 23.2593 2.5903 34.3769C-2.02363 40.9765 -2.40691 59.2036 18.0072 68.9169C17.9094 71.4525 20.3353 77.531 31.3526 79.8882C34.854 80.4567 42.3333 78.7012 43.6715 78.1161C45.5596 77.6605 52.1187 76.4359 60.6832 74.9146C60.9765 74.8625 64.9948 73.8613 79.8947 74.9146C82.0945 75.1096 88.1953 76.2604 95 79.3031C95 78.8643 93.5041 77.1381 87.5207 73.7443C84.8321 72.2327 75.8875 69.8656 68.7308 70.2167C64.9667 70.168 57.8381 70.2042 52.324 73.0129C51.2974 73.3542 48.9216 73.832 47.6311 73.0129C46.9956 72.7203 45.5779 70.9649 47.3378 67.454C47.3378 67.454 48.863 65.6694 53.2039 55.0198C53.986 52.6793 55.0811 47.296 53.2039 44.4873C52.1773 42.7319 50.2708 38.9285 50.1242 37.7582C49.9775 36.5879 49.5669 33.9548 50.8574 32.7845C51.1801 32.4919 51.4147 31.585 54.2305 32.0531C54.255 32.0572 54.6998 32.3457 59.51 32.3457C60.6832 31.9068 63.0296 30.1514 63.0296 26.6406V25.1777L62.443 24.8851L59.2167 24.1537C58.5323 24.105 56.9582 23.7149 56.137 22.5446L56.1369 22.5445C55.9902 22.1056 55.4036 20.3502 54.2305 19.18C54.2305 19.18 53.6732 18.4486 51.4441 16.1081C51.4441 15.0841 51.2974 14.9085 53.6439 11.2807C53.595 11.0368 52.588 10.9881 48.951 12.7435V10.5492C48.7554 10.4029 47.7777 10.637 45.4313 12.7435C43.6715 14.2063 39.3599 18.2438 36.1922 22.6909C35.2145 24.3 33.2591 28.1327 33.2591 30.5903V35.1251C33.6502 35.0276 35.0776 35.5932 37.6587 38.6359C39.3207 40.3914 42.8209 44.8969 43.5248 48.8759C43.7692 49.6073 44.1407 52.2697 43.6715 57.0678C43.6226 58.1406 43.1728 60.959 41.765 63.6506C41.5354 64.0895 40.5917 65.172 38.8319 68.9169C38.4897 69.6971 37.9813 71.667 38.6853 73.3054C38.6364 73.598 39.0372 74.505 41.0317 75.7923C40.1518 75.7435 38.216 75.2656 37.512 73.7443C37.0232 72.9641 36.3388 70.7893 37.512 68.3317C38.5386 66.9177 40.885 63.241 42.0583 59.8472C42.5471 58.5794 43.3488 54.6395 42.6449 49.0222C42.4982 48.1444 41.9409 45.9502 40.885 44.1948C40.885 44.1948 40.0345 42.6149 37.2187 39.2211C36.4855 38.4896 35.8988 37.6412 31.7926 34.8326C30.4727 33.9548 27.5396 32.3164 26.3664 32.7846C26.6597 33.0771 26.953 33.0479 26.953 34.6863C26.5131 34.1011 26.0144 34.1304 24.6066 34.8326C25.1932 34.8326 25.3692 35.3007 26.0731 37.1731C25.1443 37.7095 23.1987 39.2211 22.8467 40.9765Z" fill="#00194E"/>
<path d="M33.2591 10.5492C31.7926 12.1634 28.1849 17.2491 27.8329 24.1537C25.682 18.2536 25.2812 5.28297 40.885 0.601854C46.2623 -0.763471 59.07 -0.685451 67.2826 10.5492C69.3846 13.4262 73.1194 22.2812 70.6556 34.6862C70.2156 38.1971 67.7225 48.4663 59.51 62.0415C62.1008 57.1653 67.1653 43.5803 66.696 28.2497C66.7449 24.5438 65.0828 16.108 59.2167 10.5492C57.7501 9.15952 53.6439 4.99041 45.4313 4.99041C43.036 4.84412 37.512 5.86811 33.2591 10.5492Z" fill="#00194E"/>
</svg>
